<svg xmlns="http://www.w3.org/2000/svg" viewBox="0 0 192 192" fill="none">
  <rect width="192" height="192" rx="42" fill="#3AA86A"/>
  <rect x="14" y="14" width="164" height="52" rx="14" fill="#7EC8E8"/>
  <rect x="34" y="64" width="124" height="86" rx="8" stroke="#FFFFFF" stroke-width="8"/>
  <path d="M42 76h108M42 94h108M42 112h108M42 130h108" stroke="#FFFFFF" stroke-width="3" opacity=".4"/>
  <path d="M58 64v86M78 64v86M96 64v86M114 64v86M134 64v86" stroke="#FFFFFF" stroke-width="3" opacity=".4"/>
  <circle cx="96" cy="128" r="22" fill="#F4F4F4" stroke="#1A2744" stroke-width="3"/>
  <path d="M96 106l7.1 14 15.5 2.2-11.2 10.9 2.6 15.4L96 141.1l-14 7.4 2.6-15.4-11.2-10.9 15.5-2.2L96 106z" fill="#1A2744"/>
  <path d="M50 158c16 12 76 12 92 0" stroke="#FF5A3C" stroke-width="7" stroke-linecap="round"/>
</svg>
