<svg xmlns="http://www.w3.org/2000/svg" viewBox="0 0 192 192" fill="none">
  <rect width="192" height="192" rx="42" fill="#3AA86A"/>
  <rect x="14" y="14" width="164" height="50" rx="14" fill="#7EC8E8"/>
  <rect x="34" y="60" width="124" height="84" rx="8" stroke="#FFFFFF" stroke-width="8"/>
  <path d="M42 72h108M42 90h108M42 108h108M42 126h108" stroke="#FFFFFF" stroke-width="3" opacity=".4"/>
  <path d="M58 60v84M78 60v84M96 60v84M114 60v84M134 60v84" stroke="#FFFFFF" stroke-width="3" opacity=".4"/>
  <circle cx="96" cy="132" r="30" fill="#FFFFFF"/>
  <polygon points="96,115.5 111.7,126.9 105.7,145.4 86.3,145.4 80.3,126.9" fill="#111111"/>
  <path d="M96 115.5v-12M80.3 126.9l-13.5 8.5M111.7 126.9l13.5 8.5M86.3 145.4l-6 13.5M105.7 145.4l6 13.5" stroke="#222222" stroke-width="2.2" stroke-linecap="round" opacity=".45"/>
  <path d="M50 168c16 11 76 11 92 0" stroke="#FF5A3C" stroke-width="7" stroke-linecap="round"/>
</svg>
