<svg xmlns="http://www.w3.org/2000/svg" viewBox="0 0 128 128" fill="none">
  <rect width="128" height="128" rx="28" fill="#3AA86A"/>
  <rect x="10" y="10" width="108" height="34" rx="10" fill="#7EC8E8"/>
  <rect x="22" y="40" width="84" height="56" rx="6" stroke="#FFFFFF" stroke-width="5"/>
  <path d="M28 48h72M28 59h72M28 70h72M28 81h72" stroke="#FFFFFF" stroke-width="2" opacity=".4"/>
  <path d="M38 40v56M52 40v56M64 40v56M76 40v56M90 40v56" stroke="#FFFFFF" stroke-width="2" opacity=".4"/>
  <!-- crisp white soccer ball -->
  <ellipse cx="66" cy="104" rx="18" ry="5" fill="#1A2744" opacity=".2"/>
  <circle cx="64" cy="86" r="20" fill="#FFFFFF"/>
  <circle cx="64" cy="86" r="20" fill="url(#ballG)" opacity=".95"/>
  <path d="M64 72.5l4.8 9.4 10.4 1.5-7.5 7.3 1.8 10.3L64 95.6l-9.5 5 1.8-10.3-7.5-7.3 10.4-1.5L64 72.5z" fill="#1A1A1A"/>
  <path d="M55.2 81.6l-8.4 6M72.8 81.6l8.4 6M59.4 95l-4.6 10M68.6 95l4.6 10M64 72.5V66" stroke="#2A2A2A" stroke-width="1.5" stroke-linecap="round" opacity=".4"/>
  <circle cx="57" cy="78" r="5" fill="#FFFFFF" opacity=".5"/>
  <path d="M34 112c10 7 50 7 60 0" stroke="#FF5A3C" stroke-width="5" stroke-linecap="round"/>
  <defs>
    <radialGradient id="ballG" cx="34%" cy="28%" r="70%">
      <stop offset="0%" stop-color="#FFFFFF"/>
      <stop offset="65%" stop-color="#FFFFFF"/>
      <stop offset="100%" stop-color="#E2E2E2"/>
    </radialGradient>
  </defs>
</svg>
