<svg xmlns="http://www.w3.org/2000/svg" viewBox="0 0 128 128" fill="none">
  <rect width="128" height="128" rx="28" fill="#3AA86A"/>
  <rect x="10" y="10" width="108" height="36" rx="10" fill="#7EC8E8"/>
  <rect x="22" y="42" width="84" height="58" rx="6" stroke="#FFFFFF" stroke-width="6"/>
  <path d="M28 50h72M28 62h72M28 74h72M28 86h72" stroke="#FFFFFF" stroke-width="2" opacity=".45"/>
  <path d="M38 42v58M52 42v58M64 42v58M76 42v58M90 42v58" stroke="#FFFFFF" stroke-width="2" opacity=".45"/>
  <circle cx="64" cy="88" r="17" fill="url(#ballGrad)"/>
  <path d="M64 77.2l3.9 7.7 8.5 1.2-6.2 6 1.5 8.4L64 96.4l-7.7 4.1 1.5-8.4-6.2-6 8.5-1.2L64 77.2z" fill="#1A1A1A"/>
  <path d="M57.2 84.2l-7.2 5.2M70.8 84.2l7.2 5.2M60.2 92.8l-4.2 9.2M67.8 92.8l4.2 9.2M64 77.2V71" stroke="#2A2A2A" stroke-width="1.4" stroke-linecap="round" opacity=".55"/>
  <circle cx="58" cy="81" r="4.5" fill="white" opacity=".45"/>
  <path d="M34 104c10 8 50 8 60 0" stroke="#FF5A3C" stroke-width="5" stroke-linecap="round"/>
  <defs>
    <radialGradient id="ballGrad" cx="38%" cy="32%" r="68%">
      <stop offset="0%" stop-color="#FFFFFF"/>
      <stop offset="55%" stop-color="#F0F0F0"/>
      <stop offset="100%" stop-color="#A8A8A8"/>
    </radialGradient>
  </defs>
</svg>
