<svg xmlns="http://www.w3.org/2000/svg" viewBox="0 0 128 128" fill="none">
  <rect width="128" height="128" rx="28" fill="#3AA86A"/>
  <rect x="10" y="10" width="108" height="34" rx="10" fill="#7EC8E8"/>
  <rect x="22" y="40" width="84" height="56" rx="6" stroke="#FFFFFF" stroke-width="5"/>
  <path d="M28 48h72M28 59h72M28 70h72M28 81h72" stroke="#FFFFFF" stroke-width="2" opacity=".4"/>
  <path d="M38 40v56M52 40v56M64 40v56M76 40v56M90 40v56" stroke="#FFFFFF" stroke-width="2" opacity=".4"/>
  <!-- flat white soccer ball (no shadow) -->
  <circle cx="64" cy="86" r="20" fill="#FFFFFF"/>
  <polygon points="64,75 74.5,82.6 70.5,94.9 57.5,94.9 53.5,82.6" fill="#111111"/>
  <path d="M64 75v-8M53.5 82.6l-9 5.5M74.5 82.6l9 5.5M57.5 94.9l-4 9M70.5 94.9l4 9" stroke="#222222" stroke-width="1.6" stroke-linecap="round" opacity=".45"/>
  <path d="M34 112c10 7 50 7 60 0" stroke="#FF5A3C" stroke-width="5" stroke-linecap="round"/>
</svg>
